# Blender 3.6.9
# www.blender.org
o Bush
v 0.105833 0.008476 0.000024
v 0.032647 -0.092244 0.000024
v -0.074151 -0.062367 0.000024
v -0.085769 0.062143 0.000024
v 0.032647 0.100619 0.000024
v 0.013126 0.019373 0.090258
v 0.017008 0.085260 0.050970
v -0.058753 -0.031388 0.051899
v 0.068455 -0.013595 0.055540
vn 0.0327 -0.0292 -0.9990
vn 0.0620 0.0849 0.9945
vn 0.6972 -0.0041 0.7168
vn 0.2045 0.7050 0.6790
vn 0.1864 -0.5977 0.7797
vn -0.4582 -0.3916 0.7979
vn -0.5520 0.3347 0.7637
vt 0.526358 0.811117
vt 0.864309 0.383516
vt 0.948191 0.847801
vt 0.391428 0.413759
vt 0.434963 0.754572
vt 0.089936 0.514406
vt 0.785789 0.475249
vt 0.652824 0.087946
vt 0.197585 0.082954
s 0
f 9/1/1 8/2/1 7/3/1
s 1
f 6/4/2 1/5/3 5/6/4
f 1/5/3 6/4/2 2/7/5
f 3/8/6 2/7/5 6/4/2
f 5/6/4 4/9/7 6/4/2
f 6/4/2 4/9/7 3/8/6
