# Blender 3.6.9
# www.blender.org
o Bush
v 0.070890 0.005678 -0.001639
v 0.021868 -0.061788 -0.001639
v -0.049669 -0.041776 -0.001639
v -0.057451 0.041626 -0.001639
v 0.021868 0.067398 -0.001639
v 0.008792 0.012977 0.058155
v 0.013972 0.056032 0.022473
v -0.039354 -0.021025 0.021865
v 0.045853 -0.009107 0.024303
vn 0.0304 -0.0132 -0.9994
vn 0.0620 0.0849 0.9945
vn 0.6934 -0.0042 0.7206
vn 0.2035 0.7015 0.6830
vn 0.1851 -0.5938 0.7830
vn -0.4551 -0.3889 0.8010
vn -0.5486 0.3325 0.7671
vt 0.042050 0.411945
vt 0.715355 0.941642
vt 0.081064 0.951467
vt 0.550593 0.391248
vt 0.110737 0.468906
vt 0.401209 0.005991
vt 0.495193 0.907148
vt 0.989874 0.710479
vt 0.968135 0.119030
s 0
f 9/1/1 8/2/1 7/3/1
s 1
f 6/4/2 1/5/3 5/6/4
f 1/5/3 6/4/2 2/7/5
f 3/8/6 2/7/5 6/4/2
f 5/6/4 4/9/7 6/4/2
f 6/4/2 4/9/7 3/8/6
