# Blender 3.6.9
# www.blender.org
o Bush
v 0.009082 0.000000 -0.036860
v -0.050610 0.144048 0.205393
v -0.050610 -0.144048 0.205393
v -0.003862 -0.008220 -0.036860
v 0.151897 -0.015448 0.205393
v -0.108855 0.107060 0.170449
v -0.005015 0.007573 -0.036860
v -0.092158 -0.121730 0.196369
v 0.148045 0.037337 0.204779
vn -0.9710 -0.0000 -0.2392
vn 0.4390 0.8611 -0.2565
vn 0.5414 -0.8046 -0.2438
vt -0.121552 0.023042
vt 0.501898 1.067301
vt 1.158921 0.026158
s 0
f 2/1/1 1/2/1 3/3/1
f 5/1/2 4/2/2 6/3/2
f 8/1/3 7/2/3 9/3/3
