# Blender 3.6.9
# www.blender.org
o Cube
v 0.108048 -0.108048 0.108048
v 0.108048 -0.108048 -0.108048
v -0.108048 -0.108048 0.108048
v -0.108048 -0.108048 -0.108048
v 0.108048 0.108048 0.108048
v 0.108048 0.108048 -0.108048
v -0.108048 0.108048 0.108048
v -0.108048 0.108048 -0.108048
v 0.144033 -0.128102 0.509091
v -0.052761 -0.128102 0.509091
v 0.144033 0.068693 0.509091
v -0.052761 0.068693 0.509091
v 0.044546 -0.096152 1.009716
v -0.118902 -0.056212 1.024873
v 0.084316 0.067998 1.006028
v -0.079133 0.107938 1.021185
v 0.152259 -0.021553 1.886559
v 0.013877 0.012263 1.899391
v 0.185930 0.117424 1.883436
v 0.047547 0.151239 1.896268
v 0.120664 -0.055346 2.150350
v 0.042346 -0.032641 2.146595
v 0.145643 0.074604 2.141350
v 0.067325 0.097309 2.137594
v 0.086990 -0.106185 2.973234
v 0.040512 -0.089403 2.972324
v 0.087745 -0.026984 2.957222
v 0.041267 -0.010202 2.956312
v 0.163443 -0.057523 2.032123
v 0.192768 0.076940 2.026062
v 0.202289 -0.043238 2.196713
v 0.219996 0.046971 2.187940
v 0.277981 -0.051763 2.184523
v 0.299592 0.042500 2.175750
v 0.402438 -0.083788 2.529470
v 0.415335 -0.018085 2.523081
v 0.457567 -0.089997 2.520592
v 0.473307 -0.021341 2.514202
v 0.513578 0.009074 2.790051
v 0.526475 0.074778 2.783661
v 0.568708 0.002866 2.781172
v 0.584447 0.071521 2.774783
v 0.634615 -0.005320 3.048679
v 0.640838 0.026385 3.045596
v 0.661218 -0.008316 3.044395
v 0.668813 0.024814 3.041311
v 0.121840 0.054552 3.705415
v 0.086366 0.064540 3.699831
v 0.119717 0.113912 3.691782
v 0.084243 0.123900 3.686198
v 0.065501 0.188682 4.268077
v 0.036561 0.196830 4.263522
v 0.063770 0.237110 4.256955
v 0.034829 0.245258 4.252399
vn -0.0000 0.9952 0.0977
vn -1.0000 -0.0000 -0.0000
vn -0.0000 1.0000 -0.0000
vn -0.0000 -0.0000 -1.0000
vn -0.0000 -1.0000 -0.0000
vn 1.0000 -0.0000 -0.0000
vn -0.1063 -0.9908 0.0839
vn -0.0000 -0.9988 -0.0499
vn 0.9960 -0.0000 -0.0894
vn -0.9906 -0.0000 0.1366
vn 0.2295 0.9699 -0.0812
vn 0.1090 0.9936 -0.0287
vn -0.9890 0.1079 -0.1007
vn 0.9814 -0.1065 0.1600
vn 0.9736 -0.2064 0.0976
vn -0.9633 0.2362 0.1278
vn 0.9666 -0.2364 -0.0986
vn -0.2263 -0.9678 0.1101
vn 0.2942 0.9460 0.1361
vn -0.2908 -0.9446 -0.1521
vn 0.2877 0.9371 0.1978
vn -0.9662 0.2170 0.1393
vn 0.3184 0.9286 -0.1907
vn -0.9926 0.1216 -0.0047
vn 0.9922 -0.1167 0.0446
vn -0.2986 -0.9519 -0.0686
vn -0.1691 -0.9738 -0.1518
vn 0.7786 -0.2117 -0.5907
vn -0.0041 0.9963 -0.0855
vn -0.4928 0.1645 0.8544
vn -0.1196 -0.9916 -0.0489
vn 0.9209 -0.2397 -0.3073
vn -0.8256 0.2129 0.5225
vn 0.8450 -0.2383 -0.4787
vn 0.0778 0.9862 0.1461
vn -0.1123 -0.9937 -0.0027
vn 0.0014 0.9418 -0.3362
vn -0.0483 -0.9342 0.3535
vn -0.9239 0.2123 0.3184
vn 0.1597 0.0597 0.9854
vn -0.8801 0.2140 0.4238
vn 0.9126 -0.2400 -0.3309
vn 0.0781 0.9859 0.1481
vn 0.9947 0.0554 0.0864
vn -0.9982 0.0030 0.0602
vn 0.9990 0.0001 -0.0455
vn -0.3186 -0.9228 0.2166
vn -0.0910 0.2198 0.9713
vn -0.2940 -0.9360 0.1937
vn 0.2924 0.9400 -0.1760
vn -0.9957 -0.0530 -0.0755
s 0
f 5//1 7//1 12//1 11//1
f 4//2 3//2 7//2 8//2
f 8//3 7//3 5//3 6//3
f 6//4 2//4 4//4 8//4
f 2//5 1//5 3//5 4//5
f 6//6 5//6 1//6 2//6
f 10//7 9//7 13//7 14//7
f 3//8 1//8 9//8 10//8
f 1//9 5//9 11//9 9//9
f 7//10 3//10 10//10 12//10
f 15//11 16//11 20//11 19//11
f 11//12 12//12 16//12 15//12
f 12//13 10//13 14//13 16//13
f 9//14 11//14 15//14 13//14
f 17//15 19//15 30//15 23//15 21//15 29//15
f 16//16 14//16 18//16 20//16
f 13//17 15//17 19//17 17//17
f 14//18 13//18 17//18 18//18
f 23//19 24//19 28//19 27//19
f 18//20 17//20 29//20 21//20 22//20
f 19//21 20//21 24//21 23//21 30//21
f 20//22 18//22 22//22 24//22
f 27//23 28//23 50//23 49//23
f 24//24 22//24 26//24 28//24
f 21//25 23//25 27//25 25//25
f 22//26 21//26 25//26 26//26
f 23//27 30//27 34//27 32//27
f 29//28 30//28 34//28 33//28
f 29//29 21//29 31//29 33//29
f 23//30 21//30 31//30 32//30
f 31//31 33//31 37//31 35//31
f 37//32 38//32 42//32 41//32
f 32//33 31//33 35//33 36//33
f 33//34 34//34 38//34 37//34
f 34//35 32//35 36//35 38//35
f 39//36 41//36 45//36 43//36
f 38//37 36//37 40//37 42//37
f 35//38 37//38 41//38 39//38
f 36//39 35//39 39//39 40//39
f 44//40 43//40 45//40 46//40
f 40//41 39//41 43//41 44//41
f 41//42 42//42 46//42 45//42
f 42//43 40//43 44//43 46//43
f 47//44 49//44 53//44 51//44
f 28//45 26//45 48//45 50//45
f 25//46 27//46 49//46 47//46
f 26//47 25//47 47//47 48//47
f 51//48 53//48 54//48 52//48
f 48//49 47//49 51//49 52//49
f 49//50 50//50 54//50 53//50
f 50//51 48//51 52//51 54//51
