# Blender 3.6.9
# www.blender.org
o Cube
v 0.034689 -0.045555 0.080768
v -0.038275 -0.045590 0.079573
v 0.034725 0.027224 0.080988
v -0.038240 0.027189 0.079792
v 0.049055 -0.051896 0.229812
v -0.017393 -0.051928 0.228723
v 0.049087 0.014383 0.230012
v -0.017360 0.014351 0.228923
v 0.018238 -0.040643 0.415123
v -0.036860 -0.027203 0.419886
v 0.031672 0.014644 0.414141
v -0.023426 0.028084 0.418904
v 0.059469 -0.014611 0.741274
v 0.012821 -0.003232 0.745306
v 0.070843 0.032197 0.740442
v 0.024195 0.043577 0.744474
v 0.053503 -0.025167 0.843408
v 0.023794 -0.018099 0.837178
v 0.060273 0.017976 0.837833
v 0.032199 0.025662 0.834108
v 0.043428 -0.042021 1.144195
v 0.027733 -0.036378 1.143617
v 0.043607 -0.015363 1.138336
v 0.027912 -0.009720 1.137758
v 0.061745 -0.026326 0.794816
v 0.073935 0.018709 0.793381
v 0.078074 -0.021591 0.856656
v 0.084019 0.008785 0.853589
v 0.103562 -0.024462 0.852541
v 0.110826 0.007279 0.849500
v 0.106741 -0.032099 0.980989
v 0.111071 -0.009975 0.978755
v 0.125306 -0.034190 0.977991
v 0.130596 -0.011071 0.975776
v 0.113851 0.000500 1.090145
v 0.118181 0.022624 1.087911
v 0.132415 -0.001591 1.087148
v 0.137705 0.021527 1.084933
v 0.128065 0.018755 1.248323
v 0.130154 0.029431 1.247245
v 0.137023 0.017746 1.246877
v 0.139576 0.028902 1.245808
v 0.059271 0.012863 1.416332
v 0.047264 0.016215 1.414073
v 0.058489 0.032840 1.411320
v 0.046482 0.036193 1.409061
v 0.043383 0.058599 1.625014
v 0.033587 0.061334 1.623171
v 0.042744 0.074897 1.620925
v 0.032949 0.077632 1.619082
v 0.063085 -0.025508 0.844259
v 0.069735 0.011495 0.840820
v 0.069325 0.000000 0.000000
v 0.049020 0.049020 0.000000
v 0.000000 0.069325 0.000000
v -0.049020 0.049020 0.000000
v -0.069325 0.000000 0.000000
v -0.049020 -0.049020 0.000000
v 0.000000 -0.069325 0.000000
v 0.049020 -0.049020 0.000000
v -0.048392 -0.009205 0.079517
v -0.001753 0.037316 0.080421
v 0.044842 -0.009160 0.081044
v -0.001798 -0.055681 0.080140
vn 0.6758 0.7042 0.2176
vn -0.0033 0.9700 0.2431
vn -0.6994 0.6631 0.2667
vn -0.6637 0.7449 0.0685
vn 0.7716 0.6337 0.0548
vn -0.6948 -0.7166 0.0612
vn 0.6857 -0.7261 0.0503
vn 0.5290 -0.8448 0.0808
vn -0.8380 -0.5400 0.0789
vn -0.7120 -0.6868 0.1460
vn -0.0009 -0.9976 0.0688
vn 0.6858 -0.7228 0.0856
vn 0.9935 -0.0138 0.1130
vn -0.9801 -0.0136 0.1979
vn 0.8071 0.5897 -0.0295
vn -0.5973 0.8019 -0.0166
vn -0.4734 0.8722 0.1236
vn 0.8349 0.5493 -0.0353
vn 0.8271 0.5538 -0.0964
vn 0.3478 -0.8980 -0.2694
vn 0.5464 -0.8332 -0.0849
vn -0.8722 -0.4797 0.0956
vn 0.5089 0.7950 0.3300
vn -0.5103 0.8425 0.1726
vn -0.6081 0.7938 0.0103
vn 0.8424 0.5384 -0.0235
vn 0.1205 -0.9589 0.2569
vn -0.8306 -0.5565 -0.0219
vn -0.5791 0.8024 -0.1444
vn 0.8107 0.5764 -0.1025
vn -0.7993 -0.5966 0.0720
vn 0.5358 -0.8427 0.0526
vn -0.2520 -0.7302 0.6351
vn 0.8000 0.5529 -0.2330
vn 0.5971 -0.7544 -0.2727
vn -0.6432 -0.6516 0.4020
vn -0.0819 0.7241 0.6848
vn -0.3991 0.8266 0.3968
vn 0.5637 -0.8258 0.0165
vn -0.7343 -0.6540 0.1819
vn 0.8493 0.5120 -0.1283
vn 0.7657 0.6271 -0.1429
vn 0.6166 -0.7752 0.1374
vn -0.6395 0.7681 0.0326
vn -0.8142 -0.5547 0.1713
vn 0.5267 -0.6112 0.5908
vn -0.5843 -0.4226 0.6928
vn -0.6019 0.7940 -0.0856
vn -0.4299 0.6700 0.6052
vn 0.6983 0.5326 0.4782
vn 0.6176 -0.7682 0.1687
vn 0.5768 0.6194 0.5326
vn 0.4487 -0.4992 0.7413
vn -0.7903 -0.5997 0.1257
vn -0.5513 0.7542 0.3566
vn -0.6880 -0.3545 0.6333
vn 0.5188 0.8372 0.1732
vn 0.9653 0.0202 0.2604
vn 0.6555 0.6775 0.3335
vn 0.7098 -0.6780 0.1911
vn 0.0015 0.9402 0.3407
vn -0.6573 0.6864 0.3113
vn -0.9744 0.0215 0.2240
vn -0.7094 -0.6860 0.1621
vn 0.0038 -0.9911 0.1333
s 1
f 3//1 62//2 4//3 8//4 7//5
f 6//6 5//7 9//8 10//9
f 6//6 2//10 64//11 1//12 5//7
f 1//12 63//13 3//1 7//5 5//7
f 4//3 61//14 2//10 6//6 8//4
f 11//15 12//16 16//17 15//18
f 7//5 8//4 12//16 11//15
f 8//4 6//6 10//9 12//16
f 5//7 7//5 11//15 9//8
f 15//18 26//19 25//20 13//21
f 12//16 10//9 14//22 16//17
f 9//8 11//15 15//18 13//21
f 10//9 9//8 13//21 14//22
f 19//23 20//24 24//25 23//26
f 14//22 13//21 25//20 17//27 18//28
f 15//18 16//17 20//24 19//23 26//19
f 16//17 14//22 18//28 20//24
f 23//26 24//25 46//29 45//30
f 20//24 18//28 22//31 24//25
f 17//27 19//23 23//26 21//32
f 18//28 17//27 21//32 22//31
f 25//20 51//33 17//27
f 25//20 26//19 30//34 29//35
f 29//35 27//36 51//33 25//20
f 52//37 51//33 27//36 28//38
f 27//36 29//35 33//39 31//40
f 33//39 34//41 38//42 37//43
f 28//38 27//36 31//40 32//44
f 29//35 30//34 34//41 33//39
f 30//34 28//38 32//44 34//41
f 35//45 37//43 41//46 39//47
f 34//41 32//44 36//48 38//42
f 31//40 33//39 37//43 35//45
f 32//44 31//40 35//45 36//48
f 40//49 39//47 41//46 42//50
f 36//48 35//45 39//47 40//49
f 37//43 38//42 42//50 41//46
f 38//42 36//48 40//49 42//50
f 43//51 45//30 49//52 47//53
f 24//25 22//31 44//54 46//29
f 21//32 23//26 45//30 43//51
f 22//31 21//32 43//51 44//54
f 47//53 49//52 50//55 48//56
f 44//54 43//51 47//53 48//56
f 45//30 46//29 50//55 49//52
f 46//29 44//54 48//56 50//55
f 19//23 17//27 51//33 52//37
s 0
f 26//57 19//57 52//57
s 1
f 30//34 26//19 52//37 28//38
f 53//58 54//59 3//1 63//13
f 1//12 60//60 53//58 63//13
f 3//1 54//59 55//61 62//2
f 55//61 56//62 4//3 62//2
f 57//63 61//14 4//3 56//62
f 61//14 57//63 58//64 2//10
f 2//10 58//64 59//65 64//11
f 59//65 60//60 1//12 64//11
