# Blender 3.6.9
# www.blender.org
o Tree
v 0.315931 -0.005730 -0.049585
v 0.273161 0.153889 -0.049585
v 0.102426 0.171632 -0.049585
v -0.003308 0.313509 -0.049585
v -0.109043 0.171632 -0.049585
v -0.279777 0.153889 -0.049585
v -0.322547 -0.005730 -0.049585
v -0.186446 -0.117240 -0.049585
v -0.162928 -0.282199 -0.049585
v -0.003308 -0.222975 -0.049585
v 0.156311 -0.282199 -0.049585
v 0.179829 -0.117240 -0.049585
v 0.200000 0.000000 0.293030
v 0.173205 0.100000 0.293030
v 0.112558 0.183225 0.295002
v 0.000000 0.200000 0.293030
v -0.100000 0.173205 0.293030
v -0.173205 0.100000 0.293030
v -0.200000 0.000000 0.293030
v -0.173205 -0.100000 0.293030
v -0.100000 -0.173205 0.293030
v 0.000000 -0.200000 0.293030
v 0.100000 -0.173205 0.293030
v 0.173205 -0.100000 0.293030
v 0.171567 0.035642 6.726387
v 0.130760 0.116650 6.726387
v 0.054916 0.166402 6.726387
v -0.035642 0.171567 6.726387
v -0.116650 0.130760 6.726387
v -0.166402 0.054916 6.726387
v -0.171567 -0.035642 6.726387
v -0.130760 -0.116650 6.726387
v -0.054916 -0.166402 6.726387
v 0.035642 -0.171567 6.726387
v 0.116650 -0.130760 6.726387
v 0.166402 -0.054916 6.726387
vn 0.9443 0.1721 -0.2806
vn 0.7315 -0.6294 -0.2620
vn 0.8255 -0.5493 -0.1293
vn 0.9793 0.1451 -0.1409
vn 0.0311 -0.9876 -0.1538
vn -0.4944 -0.8624 -0.1086
vn -0.4617 -0.8852 -0.0575
vn 0.0805 -0.9940 -0.0736
vn -0.4898 0.8469 -0.2073
vn -0.0007 0.9839 -0.1788
vn -0.0462 0.9945 -0.0935
vn -0.5468 0.8313 -0.0992
vn 0.8551 0.4885 -0.1738
vn 0.8383 0.5375 -0.0908
vn 0.4917 -0.8603 -0.1347
vn 0.5391 -0.8393 -0.0703
vn -0.8578 0.4891 -0.1577
vn -0.8854 0.4574 -0.0825
vn -0.7504 -0.6168 -0.2377
vn -0.9489 0.1739 -0.2635
vn -0.9898 0.0490 -0.1334
vn -0.7935 -0.5973 -0.1170
vn 0.4928 0.8429 -0.2163
vn 0.4556 0.8841 -0.1038
vn -0.5813 0.8137 -0.0039
vn -0.9102 0.4141 -0.0039
vn -0.9953 -0.0965 -0.0039
vn -0.8371 -0.5470 -0.0047
vn 0.8137 0.5813 -0.0039
vn 0.4141 0.9102 -0.0039
vn 0.5813 -0.8137 -0.0039
vn 0.9102 -0.4141 -0.0039
vn -0.4244 -0.9054 -0.0051
vn -0.0965 0.9953 -0.0039
vn 0.9953 0.0965 -0.0039
vn 0.1255 -0.9921 -0.0041
vt 1.399290 0.004732
vt 1.550410 0.008848
vt 1.540269 0.076183
vt 1.396629 0.073829
vt 0.035597 0.024907
vt 0.213310 0.019268
vt 0.234836 0.080951
vt 0.090264 0.084237
vt 0.813334 0.001495
vt 0.957817 0.005247
vt 0.956114 0.070760
vt 0.808554 0.070907
vt 1.240654 0.006727
vt 1.251320 0.072263
vt 1.695789 0.018924
vt 1.872498 0.025319
vt 1.810639 0.084255
vt 1.679907 0.080525
vt 0.673493 0.006912
vt 0.661269 0.072451
vt 0.360876 0.009331
vt 0.513411 0.005222
vt 0.516344 0.073999
vt 0.372959 0.076313
vt 1.101497 0.001277
vt 1.103885 0.070805
vt 0.803318 2.539973
vt 0.661935 2.540206
vt 0.525669 2.540579
vt 0.389849 2.541113
vt 1.213381 2.540226
vt 1.078969 2.539988
vt 1.626456 2.541880
vt 1.490692 2.541176
vt 0.247496 2.541856
vt 0.937792 2.539901
vt 1.354578 2.540633
vt 0.106193 2.542758
vt 1.767861 2.542758
s 1
f 7/1/1 6/2/2 18/3/3 19/4/4
f 4/5/5 3/6/6 15/7/7 16/8/8
f 11/9/9 10/10/10 22/11/11 23/12/12
f 8/13/13 7/1/1 19/4/4 20/14/14
f 5/15/15 4/16/5 16/17/8 17/18/16
f 12/19/17 11/9/9 23/12/12 24/20/18
f 2/21/19 1/22/20 13/23/21 14/24/22
f 9/25/23 8/13/13 20/14/14 21/26/24
f 6/2/2 5/15/15 17/18/16 18/3/3
f 1/22/20 12/19/17 24/20/18 13/23/21
f 3/6/6 2/21/19 14/24/22 15/7/7
f 10/10/10 9/25/23 21/26/24 22/11/11
f 24/20/18 23/12/12 35/27/25 36/28/26
f 14/24/22 13/23/21 25/29/27 26/30/28
f 21/26/24 20/14/14 32/31/29 33/32/30
f 18/3/3 17/18/16 29/33/31 30/34/32
f 13/23/21 24/20/18 36/28/26 25/29/27
f 15/7/7 14/24/22 26/30/28 27/35/33
f 22/11/11 21/26/24 33/32/30 34/36/34
f 19/4/4 18/3/3 30/34/32 31/37/35
f 16/8/8 15/7/7 27/35/33 28/38/36
f 23/12/12 22/11/11 34/36/34 35/27/25
f 20/14/14 19/4/4 31/37/35 32/31/29
f 17/18/16 16/17/8 28/39/36 29/33/31
